<?xml version="1.0" encoding="utf-8"?>
<!-- Generator: Adobe Illustrator 24.0.0, SVG Export Plug-In . SVG Version: 6.00 Build 0)  -->
<svg version="1.1" id="Layer_1" xmlns="http://www.w3.org/2000/svg" xmlns:xlink="http://www.w3.org/1999/xlink" x="0px" y="0px"
	 width="10.1px" height="20px" viewBox="0 0 10.1 20" style="enable-background:new 0 0 10.1 20;" xml:space="preserve">
<style type="text/css">
	.st0{fill:#2E2E2B;}
</style>
<g id="XMLID_834_">
	<path id="XMLID_835_" class="st0" d="M0.3,10.7h2.2v9c0,0.2,0.1,0.3,0.3,0.3h3.7c0.2,0,0.3-0.1,0.3-0.3v-9h2.5
		c0.2,0,0.3-0.1,0.3-0.3l0.4-3.3c0-0.1,0-0.2-0.1-0.3C10,6.8,9.9,6.7,9.8,6.7H6.9V4.6c0-0.6,0.3-0.9,1-0.9c0.1,0,1.9,0,1.9,0
		c0.2,0,0.3-0.1,0.3-0.3v-3C10.1,0.1,10,0,9.8,0H7.2c0,0-0.1,0-0.1,0C6.6,0,5,0.1,3.8,1.2C2.4,2.5,2.6,4,2.6,4.3v2.4H0.3
		C0.1,6.7,0,6.9,0,7v3.3C0,10.5,0.1,10.7,0.3,10.7z"/>
</g>
</svg>
