<?xml version="1.0" encoding="utf-8"?>
<!-- Generator: Adobe Illustrator 24.0.0, SVG Export Plug-In . SVG Version: 6.00 Build 0)  -->
<svg version="1.1" id="Capa_1" xmlns="http://www.w3.org/2000/svg" xmlns:xlink="http://www.w3.org/1999/xlink" x="0px" y="0px"
	 width="15px" height="13.9px" viewBox="0 0 15 13.9" style="enable-background:new 0 0 15 13.9;" xml:space="preserve">
<style type="text/css">
	.st0{fill:#716AA8;}
</style>
<g>
	<g>
		<path class="st0" d="M13.8,1.3C13,0.5,11.9,0,10.8,0c-1.1,0-2.2,0.5-3,1.3L7.5,1.6L7.2,1.3C5.7-0.3,3.1-0.4,1.4,1.1
			C1.4,1.2,1.3,1.2,1.2,1.3c-1.6,1.8-1.6,4.5,0,6.3l5.9,6.2c0.2,0.2,0.5,0.2,0.8,0c0,0,0,0,0,0l5.9-6.2C15.4,5.8,15.4,3.1,13.8,1.3z
			 M13,6.8L13,6.8l-5.5,5.8L2,6.8C0.8,5.5,0.8,3.4,2,2c1.1-1.2,3.1-1.3,4.3-0.2C6.3,1.9,6.4,2,6.5,2l0.7,0.7C7.3,3,7.7,3,7.9,2.7
			L8.5,2c1.1-1.2,3.1-1.3,4.3-0.2C12.9,1.9,12.9,2,13,2C14.3,3.4,14.3,5.5,13,6.8z"/>
	</g>
</g>
</svg>
