<?xml version="1.0" encoding="utf-8"?>
<!-- Generator: Adobe Illustrator 24.0.0, SVG Export Plug-In . SVG Version: 6.00 Build 0)  -->
<svg version="1.1" id="Calque_1" xmlns="http://www.w3.org/2000/svg" xmlns:xlink="http://www.w3.org/1999/xlink" x="0px" y="0px"
	 width="20px" height="20px" viewBox="0 0 20 20" style="enable-background:new 0 0 20 20;" xml:space="preserve">
<style type="text/css">
	.st0{fill:#2E2E2B;}
</style>
<g>
	<path class="st0" d="M0.3,6.6h4.1v13.3H0.3V6.6z M2.4,0c1.3,0,2.4,1.1,2.4,2.4S3.7,4.7,2.4,4.7S0,3.7,0,2.4C-0.1,1.1,1.1,0,2.4,0"
		/>
	<path class="st0" d="M7.1,6.6h4v1.8h0.1c0.6-1.1,1.9-2.1,3.9-2.1c4.2,0,4.9,2.8,4.9,6.4V20h-4.1v-6.5c0-1.6,0-3.6-2.1-3.6
		s-2.5,1.7-2.5,3.4v6.6H7.1L7.1,6.6L7.1,6.6z"/>
</g>
</svg>
