<?xml version="1.0" encoding="utf-8"?>
<!-- Generator: Adobe Illustrator 24.0.0, SVG Export Plug-In . SVG Version: 6.00 Build 0)  -->
<svg version="1.1" id="Calque_1" xmlns="http://www.w3.org/2000/svg" xmlns:xlink="http://www.w3.org/1999/xlink" x="0px" y="0px"
	 width="24.4px" height="20px" viewBox="0 0 24.4 20" style="enable-background:new 0 0 24.4 20;" xml:space="preserve">
<style type="text/css">
	.st0{fill:#2E2E2B;}
</style>
<g>
	<path class="st0" d="M24.4,2.3c-0.9,0.4-1.9,0.7-2.9,0.8c1.1-0.6,1.8-1.6,2.3-2.8c-1,0.6-2.1,1-3.2,1.3c-0.9-1-2.3-1.6-3.7-1.6
		c-2.8,0-5.1,2.2-5.1,5.1c0,0.4,0.1,0.8,0.1,1.1C7.8,6,4.1,4,1.6,0.9C1.2,1.7,0.9,2.6,0.9,3.5c0,1.7,0.9,3.3,2.3,4.2
		c-0.8,0-1.6-0.3-2.3-0.6v0.1c0,2.4,1.7,4.5,4.1,4.9c-0.4,0.1-0.9,0.2-1.3,0.2c-0.3,0-0.6,0-0.9-0.1c0.6,2,2.5,3.4,4.7,3.5
		c-1.7,1.4-3.9,2.1-6.3,2.1c-0.4,0-0.8,0-1.2-0.1C2.3,19.2,4.9,20,7.8,20c9.3,0,14.4-7.7,14.4-14.3V5.1C22.9,4.3,23.8,3.4,24.4,2.3
		L24.4,2.3z"/>
</g>
</svg>
